<svg width="160" height="78" viewBox="0 0 160 78" fill="none" xmlns="http://www.w3.org/2000/svg">
<path fill-rule="evenodd" clip-rule="evenodd" d="M11 74C11 73.4477 11.4477 73 12 73L15.2 73C16.0566 73 16.6389 72.9992 17.089 72.9624C17.5274 72.9266 17.7516 72.8617 17.908 72.782C18.2843 72.5903 18.5903 72.2843 18.782 71.908C18.8617 71.7516 18.9266 71.5274 18.9624 71.089C18.9992 70.6389 19 70.0566 19 69.2L19 62.8C19 61.9434 18.9992 61.3611 18.9624 60.911C18.9266 60.4726 18.8617 60.2484 18.782 60.092C18.5903 59.7157 18.2843 59.4097 17.908 59.218C17.7516 59.1383 17.5274 59.0734 17.089 59.0376C16.6389 59.0008 16.0566 59 15.2 59L12 59C11.4477 59 11 58.5523 11 58C11 57.4477 11.4477 57 12 57L15.2413 57C16.0463 57 16.7106 57 17.2518 57.0442C17.8139 57.0901 18.3306 57.1887 18.816 57.436C19.5686 57.8195 20.1805 58.4314 20.564 59.184C20.8113 59.6694 20.9099 60.1861 20.9558 60.7482C21 61.2894 21 61.9537 21 62.7587V69.2413C21 70.0463 21 70.7106 20.9558 71.2518C20.9099 71.8139 20.8113 72.3306 20.564 72.816C20.1805 73.5686 19.5686 74.1805 18.816 74.564C18.3306 74.8113 17.8139 74.9099 17.2518 74.9558C16.7106 75 16.0463 75 15.2413 75H12C11.4477 75 11 74.5523 11 74Z" fill="#262626"/>
<path d="M4 67C3.44772 67 3 66.5523 3 66C3 65.4477 3.44772 65 4 65H12.5858L11.2929 63.7071C10.9024 63.3166 10.9024 62.6834 11.2929 62.2929C11.6834 61.9024 12.3166 61.9024 12.7071 62.2929L15.7071 65.2929C16.0976 65.6834 16.0976 66.3166 15.7071 66.7071L12.7071 69.7071C12.3166 70.0976 11.6834 70.0976 11.2929 69.7071C10.9024 69.3166 10.9024 68.6834 11.2929 68.2929L12.5858 67H4Z" fill="#171717"/>
<path opacity="0.5" d="M2.43115 13.0034V4.75781H1.25684V14H6.95068V13.0034H2.43115ZM8.58203 10.5024V10.6421C8.58203 11.1372 8.65397 11.5964 8.79785 12.0195C8.94173 12.4427 9.14909 12.8109 9.41992 13.124C9.68652 13.4372 10.0124 13.6826 10.3975 13.8604C10.7868 14.0381 11.2248 14.127 11.7114 14.127C12.1938 14.127 12.6276 14.0381 13.0127 13.8604C13.3978 13.6826 13.7257 13.4372 13.9966 13.124C14.2632 12.8109 14.4684 12.4427 14.6123 12.0195C14.7562 11.5964 14.8281 11.1372 14.8281 10.6421V10.5024C14.8281 10.0073 14.7562 9.54818 14.6123 9.125C14.4684 8.69759 14.2632 8.32731 13.9966 8.01416C13.7257 7.70101 13.3957 7.45557 13.0063 7.27783C12.6213 7.09587 12.1854 7.00488 11.6987 7.00488C11.2163 7.00488 10.7826 7.09587 10.3975 7.27783C10.0124 7.45557 9.68652 7.70101 9.41992 8.01416C9.14909 8.32731 8.94173 8.69759 8.79785 9.125C8.65397 9.54818 8.58203 10.0073 8.58203 10.5024ZM9.75635 10.6421V10.5024C9.75635 10.1681 9.79655 9.84863 9.87695 9.54395C9.95736 9.23503 10.0801 8.96419 10.2451 8.73145C10.4059 8.4987 10.6069 8.31462 10.8481 8.1792C11.0894 8.03955 11.3729 7.96973 11.6987 7.96973C12.0246 7.96973 12.3081 8.03955 12.5493 8.1792C12.7948 8.31462 13 8.4987 13.165 8.73145C13.3258 8.96419 13.4465 9.23503 13.5269 9.54395C13.6115 9.84863 13.6538 10.1681 13.6538 10.5024V10.6421C13.6538 10.9806 13.6136 11.3044 13.5332 11.6133C13.4528 11.918 13.3322 12.1867 13.1714 12.4194C13.0063 12.6522 12.8011 12.8363 12.5557 12.9717C12.3145 13.1071 12.033 13.1748 11.7114 13.1748C11.3856 13.1748 11.0999 13.1071 10.8545 12.9717C10.609 12.8363 10.4059 12.6522 10.2451 12.4194C10.0801 12.1867 9.95736 11.918 9.87695 11.6133C9.79655 11.3044 9.75635 10.9806 9.75635 10.6421ZM16.5039 10.5088V10.6421C16.5039 11.133 16.5674 11.5921 16.6943 12.0195C16.8213 12.4427 17.0033 12.8109 17.2402 13.124C17.473 13.4372 17.7586 13.6826 18.0972 13.8604C18.4357 14.0381 18.8145 14.127 19.2334 14.127C19.4831 14.127 19.7158 14.0994 19.9316 14.0444C20.1475 13.9937 20.3442 13.9196 20.522 13.8223C20.6362 13.7588 20.742 13.6847 20.8394 13.6001C20.9409 13.5155 21.0361 13.4224 21.125 13.3208V13.9111C21.125 14.2074 21.0827 14.4697 20.998 14.6982C20.9134 14.9268 20.7928 15.1172 20.6362 15.2695C20.4754 15.4261 20.2829 15.5446 20.0586 15.625C19.8343 15.7054 19.5825 15.7456 19.3032 15.7456C19.1466 15.7456 18.9901 15.7287 18.8335 15.6948C18.6769 15.6652 18.5203 15.6144 18.3638 15.5425C18.2072 15.4705 18.0527 15.3732 17.9004 15.2505C17.748 15.132 17.5999 14.986 17.4561 14.8125L16.8467 15.5171C17.0033 15.7414 17.1895 15.9297 17.4053 16.082C17.6253 16.2344 17.8538 16.355 18.0908 16.4438C18.3236 16.5369 18.5542 16.6025 18.7827 16.6406C19.0112 16.6829 19.2144 16.7041 19.3921 16.7041C19.8237 16.7041 20.2173 16.6406 20.5728 16.5137C20.9282 16.3867 21.235 16.2005 21.4932 15.9551C21.7471 15.7096 21.9438 15.4113 22.0835 15.0601C22.2274 14.7088 22.2993 14.3068 22.2993 13.854V7.13184H21.2329L21.1758 7.88086C21.0954 7.7793 21.0086 7.6862 20.9155 7.60156C20.8267 7.51693 20.7314 7.44287 20.6299 7.37939C20.4437 7.25667 20.2342 7.16357 20.0015 7.1001C19.7729 7.03662 19.5212 7.00488 19.2461 7.00488C18.8187 7.00488 18.4357 7.09163 18.0972 7.26514C17.7586 7.43864 17.4709 7.67985 17.2339 7.98877C16.9969 8.29769 16.8149 8.66797 16.688 9.09961C16.5653 9.52702 16.5039 9.99674 16.5039 10.5088ZM17.6782 10.6421V10.5088C17.6782 10.1745 17.7121 9.8571 17.7798 9.55664C17.8517 9.25195 17.9639 8.98324 18.1162 8.75049C18.2643 8.52197 18.4548 8.34001 18.6875 8.20459C18.9245 8.06917 19.208 8.00146 19.5381 8.00146C19.7327 8.00146 19.9105 8.02686 20.0713 8.07764C20.2321 8.12419 20.3781 8.18978 20.5093 8.27441C20.6405 8.36328 20.7568 8.46696 20.8584 8.58545C20.96 8.70394 21.0488 8.83512 21.125 8.979V12.1274C21.0488 12.2756 20.96 12.411 20.8584 12.5337C20.7568 12.6564 20.6426 12.7622 20.5156 12.8511C20.3844 12.9399 20.2363 13.0098 20.0713 13.0605C19.9105 13.1071 19.7285 13.1304 19.5254 13.1304C19.1995 13.1304 18.9202 13.0648 18.6875 12.9336C18.4548 12.7982 18.2643 12.6162 18.1162 12.3877C17.9639 12.1592 17.8517 11.8947 17.7798 11.5942C17.7121 11.2938 17.6782 10.9764 17.6782 10.6421ZM24.7114 7.13184V8.15381H27.0474V12.9844H24.7114V14H30.4624V12.9844H28.2217V7.13184H24.7114ZM26.895 5.3291C26.895 5.51953 26.9521 5.67822 27.0664 5.80518C27.1849 5.93213 27.3626 5.99561 27.5996 5.99561C27.8324 5.99561 28.008 5.93213 28.1265 5.80518C28.245 5.67822 28.3042 5.51953 28.3042 5.3291C28.3042 5.22331 28.2873 5.12598 28.2534 5.03711C28.2196 4.94824 28.1688 4.87419 28.1011 4.81494C28.0461 4.75993 27.9762 4.71761 27.8916 4.68799C27.807 4.65413 27.7096 4.63721 27.5996 4.63721C27.4896 4.63721 27.3901 4.65413 27.3013 4.68799C27.2166 4.71761 27.1468 4.75993 27.0918 4.81494C27.0241 4.87842 26.9733 4.95459 26.9395 5.04346C26.9098 5.13232 26.895 5.22754 26.895 5.3291ZM32.335 14H33.5093V9.07422C33.5897 8.92611 33.6828 8.79069 33.7886 8.66797C33.8986 8.54525 34.0171 8.43734 34.144 8.34424C34.3006 8.23844 34.472 8.15592 34.6582 8.09668C34.8444 8.0332 35.0454 8.00146 35.2612 8.00146C35.5109 8.00146 35.731 8.03109 35.9214 8.09033C36.116 8.14958 36.2811 8.24479 36.4165 8.37598C36.5477 8.50716 36.6471 8.67855 36.7148 8.89014C36.7826 9.10173 36.8164 9.35986 36.8164 9.66455V14H37.9907V9.63916C37.9907 9.18213 37.9336 8.78857 37.8193 8.4585C37.7093 8.12419 37.5506 7.84912 37.3433 7.6333C37.1359 7.41748 36.8841 7.25879 36.5879 7.15723C36.2959 7.05566 35.9701 7.00488 35.6104 7.00488C35.3438 7.00911 35.0898 7.04932 34.8486 7.12549C34.6117 7.19743 34.3916 7.30111 34.1885 7.43652C34.0531 7.52539 33.924 7.63118 33.8013 7.75391C33.6828 7.8724 33.5728 8.00358 33.4712 8.14746L33.3887 7.13184H32.335V14Z" fill="#171717"/>
</svg>
